<?xml version="1.0" encoding="UTF-8" standalone="no"?>
<!DOCTYPE svg PUBLIC "-//W3C//DTD SVG 1.1//EN"
 "http://www.w3.org/Graphics/SVG/1.1/DTD/svg11.dtd">
<!-- Generated by graphviz version 2.46.0 (20210119.1425)
 -->
<!-- Title: dependencies Pages: 1 -->
<svg width="1009pt" height="211pt"
 viewBox="0.00 0.00 1009.00 211.00" xmlns="http://www.w3.org/2000/svg" xmlns:xlink="http://www.w3.org/1999/xlink">
<g id="graph0" class="graph" transform="scale(1 1) rotate(0) translate(4 207)">
<title>dependencies</title>
<polygon fill="white" stroke="transparent" points="-4,4 -4,-207 1005,-207 1005,4 -4,4"/>
<text text-anchor="start" x="479.51" y="-42.4" font-family="sans-serif" font-weight="bold" font-size="14.00">Legend</text>
<polygon fill="#ffffb3" stroke="transparent" points="266.5,-10 266.5,-30 286.5,-30 286.5,-10 266.5,-10"/>
<text text-anchor="start" x="290.13" y="-15.4" font-family="sans-serif" font-size="14.00"> &#160;Declarations</text>
<polygon fill="#8dd3c7" stroke="transparent" points="379.5,-10 379.5,-30 399.5,-30 399.5,-10 379.5,-10"/>
<text text-anchor="start" x="403.23" y="-15.4" font-family="sans-serif" font-size="14.00"> &#160;Module</text>
<polygon fill="#80b1d3" stroke="transparent" points="465.5,-10 465.5,-30 485.5,-30 485.5,-10 465.5,-10"/>
<text text-anchor="start" x="489.28" y="-15.4" font-family="sans-serif" font-size="14.00"> &#160;Bootstrap</text>
<polygon fill="#fdb462" stroke="transparent" points="562.5,-10 562.5,-30 582.5,-30 582.5,-10 562.5,-10"/>
<text text-anchor="start" x="586.17" y="-15.4" font-family="sans-serif" font-size="14.00"> &#160;Providers</text>
<polygon fill="#fb8072" stroke="transparent" points="658.5,-10 658.5,-30 678.5,-30 678.5,-10 658.5,-10"/>
<text text-anchor="start" x="682.23" y="-15.4" font-family="sans-serif" font-size="14.00"> &#160;Exports</text>
<g id="clust1" class="cluster">
<title>cluster_CoreModule</title>
<polygon fill="none" stroke="black" stroke-dasharray="1,5" points="8,-70 8,-195 993,-195 993,-70 8,-70"/>
</g>
<g id="clust3" class="cluster">
<title>cluster_CoreModule_imports</title>
<polygon fill="none" stroke="black" points="857,-78 857,-130 985,-130 985,-78 857,-78"/>
</g>
<g id="clust6" class="cluster">
<title>cluster_CoreModule_providers</title>
<polygon fill="none" stroke="black" points="16,-78 16,-130 849,-130 849,-78 16,-78"/>
</g>
<!-- CommonModule -->
<g id="node1" class="node">
<title>CommonModule</title>
<polygon fill="#8dd3c7" stroke="black" points="976.67,-122 973.67,-126 952.67,-126 949.67,-122 865.33,-122 865.33,-86 976.67,-86 976.67,-122"/>
<text text-anchor="middle" x="921" y="-99.8" font-family="Times,serif" font-size="14.00">CommonModule</text>
</g>
<!-- CoreModule -->
<g id="node2" class="node">
<title>CoreModule</title>
<polygon fill="#8dd3c7" stroke="black" points="546.26,-187 543.26,-191 522.26,-191 519.26,-187 459.74,-187 459.74,-151 546.26,-151 546.26,-187"/>
<text text-anchor="middle" x="503" y="-164.8" font-family="Times,serif" font-size="14.00">CoreModule</text>
</g>
<!-- CommonModule&#45;&gt;CoreModule -->
<g id="edge1" class="edge">
<title>CommonModule&#45;&gt;CoreModule</title>
<path fill="none" stroke="black" d="M921,-122.28C921,-143.32 921,-175 921,-175 921,-175 556.55,-175 556.55,-175"/>
<polygon fill="black" stroke="black" points="556.55,-171.5 546.55,-175 556.55,-178.5 556.55,-171.5"/>
</g>
<!-- ProductoService -->
<g id="node3" class="node">
<title>ProductoService</title>
<ellipse fill="#fdb462" stroke="black" cx="766" cy="-104" rx="74.72" ry="18"/>
<text text-anchor="middle" x="766" y="-99.8" font-family="Times,serif" font-size="14.00">ProductoService</text>
</g>
<!-- ProductoService&#45;&gt;CoreModule -->
<g id="edge2" class="edge">
<title>ProductoService&#45;&gt;CoreModule</title>
<path fill="none" stroke="black" d="M766,-122.02C766,-139.37 766,-163 766,-163 766,-163 556.43,-163 556.43,-163"/>
<polygon fill="black" stroke="black" points="556.43,-159.5 546.43,-163 556.43,-166.5 556.43,-159.5"/>
</g>
<!-- CategoriaService -->
<g id="node4" class="node">
<title>CategoriaService</title>
<ellipse fill="#fdb462" stroke="black" cx="596" cy="-104" rx="77.56" ry="18"/>
<text text-anchor="middle" x="596" y="-99.8" font-family="Times,serif" font-size="14.00">CategoriaService</text>
</g>
<!-- CategoriaService&#45;&gt;CoreModule -->
<g id="edge3" class="edge">
<title>CategoriaService&#45;&gt;CoreModule</title>
<path fill="none" stroke="black" d="M532.42,-114.44C532.42,-114.44 532.42,-140.97 532.42,-140.97"/>
<polygon fill="black" stroke="black" points="528.92,-140.97 532.42,-150.97 535.92,-140.97 528.92,-140.97"/>
</g>
<!-- SubcategoriaService -->
<g id="node5" class="node">
<title>SubcategoriaService</title>
<ellipse fill="#fdb462" stroke="black" cx="410" cy="-104" rx="90.31" ry="18"/>
<text text-anchor="middle" x="410" y="-99.8" font-family="Times,serif" font-size="14.00">SubcategoriaService</text>
</g>
<!-- SubcategoriaService&#45;&gt;CoreModule -->
<g id="edge4" class="edge">
<title>SubcategoriaService&#45;&gt;CoreModule</title>
<path fill="none" stroke="black" d="M480.01,-115.62C480.01,-115.62 480.01,-140.85 480.01,-140.85"/>
<polygon fill="black" stroke="black" points="476.51,-140.85 480.01,-150.85 483.51,-140.85 476.51,-140.85"/>
</g>
<!-- VentaService -->
<g id="node6" class="node">
<title>VentaService</title>
<ellipse fill="#fdb462" stroke="black" cx="239" cy="-104" rx="63.1" ry="18"/>
<text text-anchor="middle" x="239" y="-99.8" font-family="Times,serif" font-size="14.00">VentaService</text>
</g>
<!-- VentaService&#45;&gt;CoreModule -->
<g id="edge5" class="edge">
<title>VentaService&#45;&gt;CoreModule</title>
<path fill="none" stroke="black" d="M239,-122.02C239,-139.37 239,-163 239,-163 239,-163 449.7,-163 449.7,-163"/>
<polygon fill="black" stroke="black" points="449.7,-166.5 459.7,-163 449.7,-159.5 449.7,-166.5"/>
</g>
<!-- TiendaService -->
<g id="node7" class="node">
<title>TiendaService</title>
<ellipse fill="#fdb462" stroke="black" cx="91" cy="-104" rx="66.61" ry="18"/>
<text text-anchor="middle" x="91" y="-99.8" font-family="Times,serif" font-size="14.00">TiendaService</text>
</g>
<!-- TiendaService&#45;&gt;CoreModule -->
<g id="edge6" class="edge">
<title>TiendaService&#45;&gt;CoreModule</title>
<path fill="none" stroke="black" d="M91,-122.28C91,-143.32 91,-175 91,-175 91,-175 449.69,-175 449.69,-175"/>
<polygon fill="black" stroke="black" points="449.69,-178.5 459.69,-175 449.69,-171.5 449.69,-178.5"/>
</g>
</g>
</svg>
