<?xml version="1.0" encoding="UTF-8" standalone="no"?>
<!DOCTYPE svg PUBLIC "-//W3C//DTD SVG 1.1//EN"
 "http://www.w3.org/Graphics/SVG/1.1/DTD/svg11.dtd">
<!-- Generated by graphviz version 2.46.0 (20210119.1425)
 -->
<!-- Title: dependencies Pages: 1 -->
<svg width="1213pt" height="284pt"
 viewBox="0.00 0.00 1213.00 284.00" xmlns="http://www.w3.org/2000/svg" xmlns:xlink="http://www.w3.org/1999/xlink">
<g id="graph0" class="graph" transform="scale(1 1) rotate(0) translate(4 280)">
<title>dependencies</title>
<polygon fill="white" stroke="transparent" points="-4,4 -4,-280 1209,-280 1209,4 -4,4"/>
<text text-anchor="start" x="581.51" y="-42.4" font-family="sans-serif" font-weight="bold" font-size="14.00">Legend</text>
<polygon fill="#ffffb3" stroke="transparent" points="368.5,-10 368.5,-30 388.5,-30 388.5,-10 368.5,-10"/>
<text text-anchor="start" x="392.13" y="-15.4" font-family="sans-serif" font-size="14.00"> &#160;Declarations</text>
<polygon fill="#8dd3c7" stroke="transparent" points="481.5,-10 481.5,-30 501.5,-30 501.5,-10 481.5,-10"/>
<text text-anchor="start" x="505.23" y="-15.4" font-family="sans-serif" font-size="14.00"> &#160;Module</text>
<polygon fill="#80b1d3" stroke="transparent" points="567.5,-10 567.5,-30 587.5,-30 587.5,-10 567.5,-10"/>
<text text-anchor="start" x="591.28" y="-15.4" font-family="sans-serif" font-size="14.00"> &#160;Bootstrap</text>
<polygon fill="#fdb462" stroke="transparent" points="664.5,-10 664.5,-30 684.5,-30 684.5,-10 664.5,-10"/>
<text text-anchor="start" x="688.17" y="-15.4" font-family="sans-serif" font-size="14.00"> &#160;Providers</text>
<polygon fill="#fb8072" stroke="transparent" points="760.5,-10 760.5,-30 780.5,-30 780.5,-10 760.5,-10"/>
<text text-anchor="start" x="784.23" y="-15.4" font-family="sans-serif" font-size="14.00"> &#160;Exports</text>
<g id="clust1" class="cluster">
<title>cluster_SharedModule</title>
<polygon fill="none" stroke="black" stroke-dasharray="1,5" points="8,-70 8,-268 1197,-268 1197,-70 8,-70"/>
</g>
<g id="clust2" class="cluster">
<title>cluster_SharedModule_declarations</title>
<polygon fill="none" stroke="black" points="268,-78 268,-130 1189,-130 1189,-78 268,-78"/>
</g>
<g id="clust9" class="cluster">
<title>cluster_SharedModule_imports</title>
<polygon fill="none" stroke="black" points="16,-78 16,-130 260,-130 260,-78 16,-78"/>
</g>
<g id="clust10" class="cluster">
<title>cluster_SharedModule_exports</title>
<polygon fill="none" stroke="black" points="99,-208 99,-260 1041,-260 1041,-208 99,-208"/>
</g>
<!-- HeaderComponent -->
<g id="node1" class="node">
<title>HeaderComponent</title>
<polygon fill="#ffffb3" stroke="black" points="1180.74,-122 1059.26,-122 1059.26,-86 1180.74,-86 1180.74,-122"/>
<text text-anchor="middle" x="1120" y="-99.8" font-family="Times,serif" font-size="14.00">HeaderComponent</text>
</g>
<!-- SharedModule -->
<g id="node7" class="node">
<title>SharedModule</title>
<polygon fill="#8dd3c7" stroke="black" points="564.42,-187 561.42,-191 540.42,-191 537.42,-187 465.58,-187 465.58,-151 564.42,-151 564.42,-187"/>
<text text-anchor="middle" x="515" y="-164.8" font-family="Times,serif" font-size="14.00">SharedModule</text>
</g>
<!-- HeaderComponent&#45;&gt;SharedModule -->
<g id="edge1" class="edge">
<title>HeaderComponent&#45;&gt;SharedModule</title>
<path fill="none" stroke="black" d="M1120,-122.11C1120,-141.34 1120,-169 1120,-169 1120,-169 574.25,-169 574.25,-169"/>
<polygon fill="black" stroke="black" points="574.25,-165.5 564.25,-169 574.25,-172.5 574.25,-165.5"/>
</g>
<!-- HeaderPromotionComponent -->
<g id="node2" class="node">
<title>HeaderPromotionComponent</title>
<polygon fill="#ffffb3" stroke="black" points="1041.36,-122 860.64,-122 860.64,-86 1041.36,-86 1041.36,-122"/>
<text text-anchor="middle" x="951" y="-99.8" font-family="Times,serif" font-size="14.00">HeaderPromotionComponent</text>
</g>
<!-- HeaderPromotionComponent&#45;&gt;SharedModule -->
<g id="edge2" class="edge">
<title>HeaderPromotionComponent&#45;&gt;SharedModule</title>
<path fill="none" stroke="black" d="M874.88,-122.02C874.88,-139.37 874.88,-163 874.88,-163 874.88,-163 574.28,-163 574.28,-163"/>
<polygon fill="black" stroke="black" points="574.28,-159.5 564.28,-163 574.28,-166.5 574.28,-159.5"/>
</g>
<!-- HeaderMobileComponent -->
<g id="node3" class="node">
<title>HeaderMobileComponent</title>
<polygon fill="#ffffb3" stroke="black" points="842.18,-122 679.82,-122 679.82,-86 842.18,-86 842.18,-122"/>
<text text-anchor="middle" x="761" y="-99.8" font-family="Times,serif" font-size="14.00">HeaderMobileComponent</text>
</g>
<!-- HeaderMobileComponent&#45;&gt;SharedModule -->
<g id="edge3" class="edge">
<title>HeaderMobileComponent&#45;&gt;SharedModule</title>
<path fill="none" stroke="black" d="M695.83,-122.24C695.83,-137.57 695.83,-157 695.83,-157 695.83,-157 574.41,-157 574.41,-157"/>
<polygon fill="black" stroke="black" points="574.41,-153.5 564.41,-157 574.41,-160.5 574.41,-153.5"/>
</g>
<!-- NewletterComponent -->
<g id="node4" class="node">
<title>NewletterComponent</title>
<polygon fill="#ffffb3" stroke="black" points="662.02,-122 525.98,-122 525.98,-86 662.02,-86 662.02,-122"/>
<text text-anchor="middle" x="594" y="-99.8" font-family="Times,serif" font-size="14.00">NewletterComponent</text>
</g>
<!-- NewletterComponent&#45;&gt;SharedModule -->
<g id="edge4" class="edge">
<title>NewletterComponent&#45;&gt;SharedModule</title>
<path fill="none" stroke="black" d="M544.98,-122.11C544.98,-122.11 544.98,-140.99 544.98,-140.99"/>
<polygon fill="black" stroke="black" points="541.48,-140.99 544.98,-150.99 548.48,-140.99 541.48,-140.99"/>
</g>
<!-- FooterComponent -->
<g id="node5" class="node">
<title>FooterComponent</title>
<polygon fill="#ffffb3" stroke="black" points="507.88,-122 390.12,-122 390.12,-86 507.88,-86 507.88,-122"/>
<text text-anchor="middle" x="449" y="-99.8" font-family="Times,serif" font-size="14.00">FooterComponent</text>
</g>
<!-- FooterComponent&#45;&gt;SharedModule -->
<g id="edge5" class="edge">
<title>FooterComponent&#45;&gt;SharedModule</title>
<path fill="none" stroke="black" d="M486.86,-122.11C486.86,-122.11 486.86,-140.99 486.86,-140.99"/>
<polygon fill="black" stroke="black" points="483.36,-140.99 486.86,-150.99 490.36,-140.99 483.36,-140.99"/>
</g>
<!-- UrlsecurePipe -->
<g id="node6" class="node">
<title>UrlsecurePipe</title>
<polygon fill="#ffffb3" stroke="black" points="371.8,-122 276.2,-122 276.2,-86 371.8,-86 371.8,-122"/>
<text text-anchor="middle" x="324" y="-99.8" font-family="Times,serif" font-size="14.00">UrlsecurePipe</text>
</g>
<!-- UrlsecurePipe&#45;&gt;SharedModule -->
<g id="edge6" class="edge">
<title>UrlsecurePipe&#45;&gt;SharedModule</title>
<path fill="none" stroke="black" d="M367.32,-122.24C367.32,-137.57 367.32,-157 367.32,-157 367.32,-157 455.41,-157 455.41,-157"/>
<polygon fill="black" stroke="black" points="455.41,-160.5 465.41,-157 455.41,-153.5 455.41,-160.5"/>
</g>
<!-- HeaderComponent  -->
<g id="node10" class="node">
<title>HeaderComponent </title>
<polygon fill="#fb8072" stroke="black" points="1032.74,-252 907.26,-252 907.26,-216 1032.74,-216 1032.74,-252"/>
<text text-anchor="middle" x="970" y="-229.8" font-family="Times,serif" font-size="14.00">HeaderComponent </text>
</g>
<!-- SharedModule&#45;&gt;HeaderComponent  -->
<g id="edge9" class="edge">
<title>SharedModule&#45;&gt;HeaderComponent </title>
<path fill="none" stroke="black" stroke-dasharray="5,2" d="M564.56,-175C682.49,-175 970,-175 970,-175 970,-175 970,-205.98 970,-205.98"/>
<polygon fill="black" stroke="black" points="966.5,-205.98 970,-215.98 973.5,-205.98 966.5,-205.98"/>
</g>
<!-- HeaderPromotionComponent  -->
<g id="node11" class="node">
<title>HeaderPromotionComponent </title>
<polygon fill="#fb8072" stroke="black" points="889.36,-252 704.64,-252 704.64,-216 889.36,-216 889.36,-252"/>
<text text-anchor="middle" x="797" y="-229.8" font-family="Times,serif" font-size="14.00">HeaderPromotionComponent </text>
</g>
<!-- SharedModule&#45;&gt;HeaderPromotionComponent  -->
<g id="edge10" class="edge">
<title>SharedModule&#45;&gt;HeaderPromotionComponent </title>
<path fill="none" stroke="black" stroke-dasharray="5,2" d="M564.22,-181C639.21,-181 773.46,-181 773.46,-181 773.46,-181 773.46,-205.76 773.46,-205.76"/>
<polygon fill="black" stroke="black" points="769.96,-205.76 773.46,-215.76 776.96,-205.76 769.96,-205.76"/>
</g>
<!-- HeaderMobileComponent  -->
<g id="node12" class="node">
<title>HeaderMobileComponent </title>
<polygon fill="#fb8072" stroke="black" points="686.68,-252 521.32,-252 521.32,-216 686.68,-216 686.68,-252"/>
<text text-anchor="middle" x="604" y="-229.8" font-family="Times,serif" font-size="14.00">HeaderMobileComponent </text>
</g>
<!-- SharedModule&#45;&gt;HeaderMobileComponent  -->
<g id="edge11" class="edge">
<title>SharedModule&#45;&gt;HeaderMobileComponent </title>
<path fill="none" stroke="black" stroke-dasharray="5,2" d="M542.68,-187.11C542.68,-187.11 542.68,-205.99 542.68,-205.99"/>
<polygon fill="black" stroke="black" points="539.18,-205.99 542.68,-215.99 546.18,-205.99 539.18,-205.99"/>
</g>
<!-- NewletterComponent  -->
<g id="node13" class="node">
<title>NewletterComponent </title>
<polygon fill="#fb8072" stroke="black" points="503.02,-252 362.98,-252 362.98,-216 503.02,-216 503.02,-252"/>
<text text-anchor="middle" x="433" y="-229.8" font-family="Times,serif" font-size="14.00">NewletterComponent </text>
</g>
<!-- SharedModule&#45;&gt;NewletterComponent  -->
<g id="edge12" class="edge">
<title>SharedModule&#45;&gt;NewletterComponent </title>
<path fill="none" stroke="black" stroke-dasharray="5,2" d="M484.4,-187.11C484.4,-187.11 484.4,-205.99 484.4,-205.99"/>
<polygon fill="black" stroke="black" points="480.9,-205.99 484.4,-215.99 487.9,-205.99 480.9,-205.99"/>
</g>
<!-- FooterComponent  -->
<g id="node14" class="node">
<title>FooterComponent </title>
<polygon fill="#fb8072" stroke="black" points="344.88,-252 223.12,-252 223.12,-216 344.88,-216 344.88,-252"/>
<text text-anchor="middle" x="284" y="-229.8" font-family="Times,serif" font-size="14.00">FooterComponent </text>
</g>
<!-- SharedModule&#45;&gt;FooterComponent  -->
<g id="edge13" class="edge">
<title>SharedModule&#45;&gt;FooterComponent </title>
<path fill="none" stroke="black" stroke-dasharray="5,2" d="M465.76,-181C405.26,-181 310.52,-181 310.52,-181 310.52,-181 310.52,-205.76 310.52,-205.76"/>
<polygon fill="black" stroke="black" points="307.02,-205.76 310.52,-215.76 314.02,-205.76 307.02,-205.76"/>
</g>
<!-- UrlsecurePipe  -->
<g id="node15" class="node">
<title>UrlsecurePipe </title>
<polygon fill="#fb8072" stroke="black" points="205.29,-252 106.71,-252 106.71,-216 205.29,-216 205.29,-252"/>
<text text-anchor="middle" x="156" y="-229.8" font-family="Times,serif" font-size="14.00">UrlsecurePipe </text>
</g>
<!-- SharedModule&#45;&gt;UrlsecurePipe  -->
<g id="edge14" class="edge">
<title>SharedModule&#45;&gt;UrlsecurePipe </title>
<path fill="none" stroke="black" stroke-dasharray="5,2" d="M465.6,-175C370.83,-175 172.78,-175 172.78,-175 172.78,-175 172.78,-205.98 172.78,-205.98"/>
<polygon fill="black" stroke="black" points="169.28,-205.98 172.78,-215.98 176.28,-205.98 169.28,-205.98"/>
</g>
<!-- CommonModule -->
<g id="node8" class="node">
<title>CommonModule</title>
<polygon fill="#8dd3c7" stroke="black" points="251.67,-122 248.67,-126 227.67,-126 224.67,-122 140.33,-122 140.33,-86 251.67,-86 251.67,-122"/>
<text text-anchor="middle" x="196" y="-99.8" font-family="Times,serif" font-size="14.00">CommonModule</text>
</g>
<!-- CommonModule&#45;&gt;SharedModule -->
<g id="edge7" class="edge">
<title>CommonModule&#45;&gt;SharedModule</title>
<path fill="none" stroke="black" d="M237.57,-122.02C237.57,-139.37 237.57,-163 237.57,-163 237.57,-163 455.72,-163 455.72,-163"/>
<polygon fill="black" stroke="black" points="455.72,-166.5 465.72,-163 455.72,-159.5 455.72,-166.5"/>
</g>
<!-- RouterModule -->
<g id="node9" class="node">
<title>RouterModule</title>
<polygon fill="#8dd3c7" stroke="black" points="121.65,-122 118.65,-126 97.65,-126 94.65,-122 24.35,-122 24.35,-86 121.65,-86 121.65,-122"/>
<text text-anchor="middle" x="73" y="-99.8" font-family="Times,serif" font-size="14.00">RouterModule</text>
</g>
<!-- RouterModule&#45;&gt;SharedModule -->
<g id="edge8" class="edge">
<title>RouterModule&#45;&gt;SharedModule</title>
<path fill="none" stroke="black" d="M114.21,-122.11C114.21,-141.34 114.21,-169 114.21,-169 114.21,-169 455.45,-169 455.45,-169"/>
<polygon fill="black" stroke="black" points="455.45,-172.5 465.45,-169 455.45,-165.5 455.45,-172.5"/>
</g>
</g>
</svg>
