<?xml version="1.0" encoding="UTF-8" standalone="no"?>
<!DOCTYPE svg PUBLIC "-//W3C//DTD SVG 1.1//EN"
 "http://www.w3.org/Graphics/SVG/1.1/DTD/svg11.dtd">
<!-- Generated by graphviz version 2.46.0 (20210119.1425)
 -->
<!-- Title: dependencies Pages: 1 -->
<svg width="1364pt" height="211pt"
 viewBox="0.00 0.00 1364.00 211.00" xmlns="http://www.w3.org/2000/svg" xmlns:xlink="http://www.w3.org/1999/xlink">
<g id="graph0" class="graph" transform="scale(1 1) rotate(0) translate(4 207)">
<title>dependencies</title>
<polygon fill="white" stroke="transparent" points="-4,4 -4,-207 1360,-207 1360,4 -4,4"/>
<text text-anchor="start" x="657.01" y="-42.4" font-family="sans-serif" font-weight="bold" font-size="14.00">Legend</text>
<polygon fill="#ffffb3" stroke="transparent" points="444,-10 444,-30 464,-30 464,-10 444,-10"/>
<text text-anchor="start" x="467.63" y="-15.4" font-family="sans-serif" font-size="14.00"> &#160;Declarations</text>
<polygon fill="#8dd3c7" stroke="transparent" points="557,-10 557,-30 577,-30 577,-10 557,-10"/>
<text text-anchor="start" x="580.73" y="-15.4" font-family="sans-serif" font-size="14.00"> &#160;Module</text>
<polygon fill="#80b1d3" stroke="transparent" points="643,-10 643,-30 663,-30 663,-10 643,-10"/>
<text text-anchor="start" x="666.78" y="-15.4" font-family="sans-serif" font-size="14.00"> &#160;Bootstrap</text>
<polygon fill="#fdb462" stroke="transparent" points="740,-10 740,-30 760,-30 760,-10 740,-10"/>
<text text-anchor="start" x="763.67" y="-15.4" font-family="sans-serif" font-size="14.00"> &#160;Providers</text>
<polygon fill="#fb8072" stroke="transparent" points="836,-10 836,-30 856,-30 856,-10 836,-10"/>
<text text-anchor="start" x="859.73" y="-15.4" font-family="sans-serif" font-size="14.00"> &#160;Exports</text>
<g id="clust1" class="cluster">
<title>cluster_ProductosModule</title>
<polygon fill="none" stroke="black" stroke-dasharray="1,5" points="8,-70 8,-195 1348,-195 1348,-70 8,-70"/>
</g>
<g id="clust2" class="cluster">
<title>cluster_ProductosModule_declarations</title>
<polygon fill="none" stroke="black" points="330,-78 330,-130 1340,-130 1340,-78 330,-78"/>
</g>
<g id="clust8" class="cluster">
<title>cluster_ProductosModule_imports</title>
<polygon fill="none" stroke="black" points="16,-78 16,-130 322,-130 322,-78 16,-78"/>
</g>
<!-- ProductosComponent -->
<g id="node1" class="node">
<title>ProductosComponent</title>
<polygon fill="#ffffb3" stroke="black" points="1331.83,-122 1194.17,-122 1194.17,-86 1331.83,-86 1331.83,-122"/>
<text text-anchor="middle" x="1263" y="-99.8" font-family="Times,serif" font-size="14.00">ProductosComponent</text>
</g>
<!-- ProductosModule -->
<g id="node6" class="node">
<title>ProductosModule</title>
<polygon fill="#8dd3c7" stroke="black" points="718.54,-187 715.54,-191 694.54,-191 691.54,-187 603.46,-187 603.46,-151 718.54,-151 718.54,-187"/>
<text text-anchor="middle" x="661" y="-164.8" font-family="Times,serif" font-size="14.00">ProductosModule</text>
</g>
<!-- ProductosComponent&#45;&gt;ProductosModule -->
<g id="edge1" class="edge">
<title>ProductosComponent&#45;&gt;ProductosModule</title>
<path fill="none" stroke="black" d="M1263,-122.29C1263,-144.21 1263,-178 1263,-178 1263,-178 728.72,-178 728.72,-178"/>
<polygon fill="black" stroke="black" points="728.72,-174.5 718.72,-178 728.72,-181.5 728.72,-174.5"/>
</g>
<!-- ProductosBreadcrumbComponent -->
<g id="node2" class="node">
<title>ProductosBreadcrumbComponent</title>
<polygon fill="#ffffb3" stroke="black" points="1176.02,-122 969.98,-122 969.98,-86 1176.02,-86 1176.02,-122"/>
<text text-anchor="middle" x="1073" y="-99.8" font-family="Times,serif" font-size="14.00">ProductosBreadcrumbComponent</text>
</g>
<!-- ProductosBreadcrumbComponent&#45;&gt;ProductosModule -->
<g id="edge2" class="edge">
<title>ProductosBreadcrumbComponent&#45;&gt;ProductosModule</title>
<path fill="none" stroke="black" d="M1073,-122.11C1073,-141.34 1073,-169 1073,-169 1073,-169 728.72,-169 728.72,-169"/>
<polygon fill="black" stroke="black" points="728.72,-165.5 718.72,-169 728.72,-172.5 728.72,-165.5"/>
</g>
<!-- BestSaleItemsComponent -->
<g id="node3" class="node">
<title>BestSaleItemsComponent</title>
<polygon fill="#ffffb3" stroke="black" points="951.92,-122 790.08,-122 790.08,-86 951.92,-86 951.92,-122"/>
<text text-anchor="middle" x="871" y="-99.8" font-family="Times,serif" font-size="14.00">BestSaleItemsComponent</text>
</g>
<!-- BestSaleItemsComponent&#45;&gt;ProductosModule -->
<g id="edge3" class="edge">
<title>BestSaleItemsComponent&#45;&gt;ProductosModule</title>
<path fill="none" stroke="black" d="M871,-122.03C871,-138.4 871,-160 871,-160 871,-160 728.66,-160 728.66,-160"/>
<polygon fill="black" stroke="black" points="728.66,-156.5 718.66,-160 728.66,-163.5 728.66,-156.5"/>
</g>
<!-- ProductosRecomendadosComponent -->
<g id="node4" class="node">
<title>ProductosRecomendadosComponent</title>
<polygon fill="#ffffb3" stroke="black" points="772.36,-122 549.64,-122 549.64,-86 772.36,-86 772.36,-122"/>
<text text-anchor="middle" x="661" y="-99.8" font-family="Times,serif" font-size="14.00">ProductosRecomendadosComponent</text>
</g>
<!-- ProductosRecomendadosComponent&#45;&gt;ProductosModule -->
<g id="edge4" class="edge">
<title>ProductosRecomendadosComponent&#45;&gt;ProductosModule</title>
<path fill="none" stroke="black" d="M661,-122.11C661,-122.11 661,-140.99 661,-140.99"/>
<polygon fill="black" stroke="black" points="657.5,-140.99 661,-150.99 664.5,-140.99 657.5,-140.99"/>
</g>
<!-- ProductosShowcaseComponent -->
<g id="node5" class="node">
<title>ProductosShowcaseComponent</title>
<polygon fill="#ffffb3" stroke="black" points="531.8,-122 338.2,-122 338.2,-86 531.8,-86 531.8,-122"/>
<text text-anchor="middle" x="435" y="-99.8" font-family="Times,serif" font-size="14.00">ProductosShowcaseComponent</text>
</g>
<!-- ProductosShowcaseComponent&#45;&gt;ProductosModule -->
<g id="edge5" class="edge">
<title>ProductosShowcaseComponent&#45;&gt;ProductosModule</title>
<path fill="none" stroke="black" d="M435,-122.03C435,-138.4 435,-160 435,-160 435,-160 593.39,-160 593.39,-160"/>
<polygon fill="black" stroke="black" points="593.39,-163.5 603.39,-160 593.39,-156.5 593.39,-163.5"/>
</g>
<!-- CommonModule -->
<g id="node7" class="node">
<title>CommonModule</title>
<polygon fill="#8dd3c7" stroke="black" points="313.67,-122 310.67,-126 289.67,-126 286.67,-122 202.33,-122 202.33,-86 313.67,-86 313.67,-122"/>
<text text-anchor="middle" x="258" y="-99.8" font-family="Times,serif" font-size="14.00">CommonModule</text>
</g>
<!-- CommonModule&#45;&gt;ProductosModule -->
<g id="edge6" class="edge">
<title>CommonModule&#45;&gt;ProductosModule</title>
<path fill="none" stroke="black" d="M258,-122.11C258,-141.34 258,-169 258,-169 258,-169 593.26,-169 593.26,-169"/>
<polygon fill="black" stroke="black" points="593.26,-172.5 603.26,-169 593.26,-165.5 593.26,-172.5"/>
</g>
<!-- ProductosRoutingModule -->
<g id="node8" class="node">
<title>ProductosRoutingModule</title>
<polygon fill="#8dd3c7" stroke="black" points="184.16,-122 181.16,-126 160.16,-126 157.16,-122 23.84,-122 23.84,-86 184.16,-86 184.16,-122"/>
<text text-anchor="middle" x="104" y="-99.8" font-family="Times,serif" font-size="14.00">ProductosRoutingModule</text>
</g>
<!-- ProductosRoutingModule&#45;&gt;ProductosModule -->
<g id="edge7" class="edge">
<title>ProductosRoutingModule&#45;&gt;ProductosModule</title>
<path fill="none" stroke="black" d="M104,-122.29C104,-144.21 104,-178 104,-178 104,-178 593.23,-178 593.23,-178"/>
<polygon fill="black" stroke="black" points="593.23,-181.5 603.23,-178 593.23,-174.5 593.23,-181.5"/>
</g>
</g>
</svg>
