<?xml version="1.0" encoding="UTF-8" standalone="no"?>
<!DOCTYPE svg PUBLIC "-//W3C//DTD SVG 1.1//EN"
 "http://www.w3.org/Graphics/SVG/1.1/DTD/svg11.dtd">
<!-- Generated by graphviz version 2.46.0 (20210119.1425)
 -->
<!-- Title: dependencies Pages: 1 -->
<svg width="2278pt" height="211pt"
 viewBox="0.00 0.00 2278.00 211.00" xmlns="http://www.w3.org/2000/svg" xmlns:xlink="http://www.w3.org/1999/xlink">
<g id="graph0" class="graph" transform="scale(1 1) rotate(0) translate(4 207)">
<title>dependencies</title>
<polygon fill="white" stroke="transparent" points="-4,4 -4,-207 2274,-207 2274,4 -4,4"/>
<text text-anchor="start" x="1114.01" y="-42.4" font-family="sans-serif" font-weight="bold" font-size="14.00">Legend</text>
<polygon fill="#ffffb3" stroke="transparent" points="901,-10 901,-30 921,-30 921,-10 901,-10"/>
<text text-anchor="start" x="924.63" y="-15.4" font-family="sans-serif" font-size="14.00"> &#160;Declarations</text>
<polygon fill="#8dd3c7" stroke="transparent" points="1014,-10 1014,-30 1034,-30 1034,-10 1014,-10"/>
<text text-anchor="start" x="1037.73" y="-15.4" font-family="sans-serif" font-size="14.00"> &#160;Module</text>
<polygon fill="#80b1d3" stroke="transparent" points="1100,-10 1100,-30 1120,-30 1120,-10 1100,-10"/>
<text text-anchor="start" x="1123.78" y="-15.4" font-family="sans-serif" font-size="14.00"> &#160;Bootstrap</text>
<polygon fill="#fdb462" stroke="transparent" points="1197,-10 1197,-30 1217,-30 1217,-10 1197,-10"/>
<text text-anchor="start" x="1220.67" y="-15.4" font-family="sans-serif" font-size="14.00"> &#160;Providers</text>
<polygon fill="#fb8072" stroke="transparent" points="1293,-10 1293,-30 1313,-30 1313,-10 1293,-10"/>
<text text-anchor="start" x="1316.73" y="-15.4" font-family="sans-serif" font-size="14.00"> &#160;Exports</text>
<g id="clust1" class="cluster">
<title>cluster_ProductoModule</title>
<polygon fill="none" stroke="black" stroke-dasharray="1,5" points="8,-70 8,-195 2262,-195 2262,-70 8,-70"/>
</g>
<g id="clust13" class="cluster">
<title>cluster_ProductoModule_imports</title>
<polygon fill="none" stroke="black" points="1837,-78 1837,-130 2254,-130 2254,-78 1837,-78"/>
</g>
<g id="clust2" class="cluster">
<title>cluster_ProductoModule_declarations</title>
<polygon fill="none" stroke="black" points="16,-78 16,-130 1829,-130 1829,-78 16,-78"/>
</g>
<!-- ProductoComponent -->
<g id="node1" class="node">
<title>ProductoComponent</title>
<polygon fill="#ffffb3" stroke="black" points="1820.88,-122 1689.12,-122 1689.12,-86 1820.88,-86 1820.88,-122"/>
<text text-anchor="middle" x="1755" y="-99.8" font-family="Times,serif" font-size="14.00">ProductoComponent</text>
</g>
<!-- ProductoModule -->
<g id="node11" class="node">
<title>ProductoModule</title>
<polygon fill="#8dd3c7" stroke="black" points="1253.1,-187 1250.1,-191 1229.1,-191 1226.1,-187 1142.9,-187 1142.9,-151 1253.1,-151 1253.1,-187"/>
<text text-anchor="middle" x="1198" y="-164.8" font-family="Times,serif" font-size="14.00">ProductoModule</text>
</g>
<!-- ProductoComponent&#45;&gt;ProductoModule -->
<g id="edge1" class="edge">
<title>ProductoComponent&#45;&gt;ProductoModule</title>
<path fill="none" stroke="black" d="M1755,-122.22C1755,-140.83 1755,-167 1755,-167 1755,-167 1263.19,-167 1263.19,-167"/>
<polygon fill="black" stroke="black" points="1263.19,-163.5 1253.19,-167 1263.19,-170.5 1263.19,-163.5"/>
</g>
<!-- CallToActionComponent -->
<g id="node2" class="node">
<title>CallToActionComponent</title>
<polygon fill="#ffffb3" stroke="black" points="1671.32,-122 1512.68,-122 1512.68,-86 1671.32,-86 1671.32,-122"/>
<text text-anchor="middle" x="1592" y="-99.8" font-family="Times,serif" font-size="14.00">CallToActionComponent</text>
</g>
<!-- CallToActionComponent&#45;&gt;ProductoModule -->
<g id="edge2" class="edge">
<title>CallToActionComponent&#45;&gt;ProductoModule</title>
<path fill="none" stroke="black" d="M1592,-122.03C1592,-139.06 1592,-162 1592,-162 1592,-162 1263.2,-162 1263.2,-162"/>
<polygon fill="black" stroke="black" points="1263.2,-158.5 1253.2,-162 1263.2,-165.5 1263.2,-158.5"/>
</g>
<!-- ProductoBreadcrumbComponent -->
<g id="node3" class="node">
<title>ProductoBreadcrumbComponent</title>
<polygon fill="#ffffb3" stroke="black" points="1494.57,-122 1293.43,-122 1293.43,-86 1494.57,-86 1494.57,-122"/>
<text text-anchor="middle" x="1394" y="-99.8" font-family="Times,serif" font-size="14.00">ProductoBreadcrumbComponent</text>
</g>
<!-- ProductoBreadcrumbComponent&#45;&gt;ProductoModule -->
<g id="edge3" class="edge">
<title>ProductoBreadcrumbComponent&#45;&gt;ProductoModule</title>
<path fill="none" stroke="black" d="M1394,-122.24C1394,-137.57 1394,-157 1394,-157 1394,-157 1263.12,-157 1263.12,-157"/>
<polygon fill="black" stroke="black" points="1263.12,-153.5 1253.12,-157 1263.12,-160.5 1263.12,-153.5"/>
</g>
<!-- ProductoLeftComponent -->
<g id="node4" class="node">
<title>ProductoLeftComponent</title>
<polygon fill="#ffffb3" stroke="black" points="1275.7,-122 1120.3,-122 1120.3,-86 1275.7,-86 1275.7,-122"/>
<text text-anchor="middle" x="1198" y="-99.8" font-family="Times,serif" font-size="14.00">ProductoLeftComponent</text>
</g>
<!-- ProductoLeftComponent&#45;&gt;ProductoModule -->
<g id="edge4" class="edge">
<title>ProductoLeftComponent&#45;&gt;ProductoModule</title>
<path fill="none" stroke="black" d="M1198,-122.11C1198,-122.11 1198,-140.99 1198,-140.99"/>
<polygon fill="black" stroke="black" points="1194.5,-140.99 1198,-150.99 1201.5,-140.99 1194.5,-140.99"/>
</g>
<!-- ProductoRightComponent -->
<g id="node5" class="node">
<title>ProductoRightComponent</title>
<polygon fill="#ffffb3" stroke="black" points="1102.5,-122 939.5,-122 939.5,-86 1102.5,-86 1102.5,-122"/>
<text text-anchor="middle" x="1021" y="-99.8" font-family="Times,serif" font-size="14.00">ProductoRightComponent</text>
</g>
<!-- ProductoRightComponent&#45;&gt;ProductoModule -->
<g id="edge5" class="edge">
<title>ProductoRightComponent&#45;&gt;ProductoModule</title>
<path fill="none" stroke="black" d="M1021,-122.24C1021,-137.57 1021,-157 1021,-157 1021,-157 1132.48,-157 1132.48,-157"/>
<polygon fill="black" stroke="black" points="1132.48,-160.5 1142.48,-157 1132.48,-153.5 1132.48,-160.5"/>
</g>
<!-- BoughtTogetherComponent -->
<g id="node6" class="node">
<title>BoughtTogetherComponent</title>
<polygon fill="#ffffb3" stroke="black" points="921.59,-122 748.41,-122 748.41,-86 921.59,-86 921.59,-122"/>
<text text-anchor="middle" x="835" y="-99.8" font-family="Times,serif" font-size="14.00">BoughtTogetherComponent</text>
</g>
<!-- BoughtTogetherComponent&#45;&gt;ProductoModule -->
<g id="edge6" class="edge">
<title>BoughtTogetherComponent&#45;&gt;ProductoModule</title>
<path fill="none" stroke="black" d="M835,-122.03C835,-139.06 835,-162 835,-162 835,-162 1132.87,-162 1132.87,-162"/>
<polygon fill="black" stroke="black" points="1132.87,-165.5 1142.87,-162 1132.87,-158.5 1132.87,-165.5"/>
</g>
<!-- VendorStoreComponent -->
<g id="node7" class="node">
<title>VendorStoreComponent</title>
<polygon fill="#ffffb3" stroke="black" points="730.36,-122 577.64,-122 577.64,-86 730.36,-86 730.36,-122"/>
<text text-anchor="middle" x="654" y="-99.8" font-family="Times,serif" font-size="14.00">VendorStoreComponent</text>
</g>
<!-- VendorStoreComponent&#45;&gt;ProductoModule -->
<g id="edge7" class="edge">
<title>VendorStoreComponent&#45;&gt;ProductoModule</title>
<path fill="none" stroke="black" d="M654,-122.22C654,-140.83 654,-167 654,-167 654,-167 1132.84,-167 1132.84,-167"/>
<polygon fill="black" stroke="black" points="1132.84,-170.5 1142.84,-167 1132.84,-163.5 1132.84,-170.5"/>
</g>
<!-- ReviewsComponent -->
<g id="node8" class="node">
<title>ReviewsComponent</title>
<polygon fill="#ffffb3" stroke="black" points="559.54,-122 430.46,-122 430.46,-86 559.54,-86 559.54,-122"/>
<text text-anchor="middle" x="495" y="-99.8" font-family="Times,serif" font-size="14.00">ReviewsComponent</text>
</g>
<!-- ReviewsComponent&#45;&gt;ProductoModule -->
<g id="edge8" class="edge">
<title>ReviewsComponent&#45;&gt;ProductoModule</title>
<path fill="none" stroke="black" d="M495,-122.22C495,-142.37 495,-172 495,-172 495,-172 1132.84,-172 1132.84,-172"/>
<polygon fill="black" stroke="black" points="1132.84,-175.5 1142.84,-172 1132.84,-168.5 1132.84,-175.5"/>
</g>
<!-- CompraSimilarComponent -->
<g id="node9" class="node">
<title>CompraSimilarComponent</title>
<polygon fill="#ffffb3" stroke="black" points="411.66,-122 244.34,-122 244.34,-86 411.66,-86 411.66,-122"/>
<text text-anchor="middle" x="328" y="-99.8" font-family="Times,serif" font-size="14.00">CompraSimilarComponent</text>
</g>
<!-- CompraSimilarComponent&#45;&gt;ProductoModule -->
<g id="edge9" class="edge">
<title>CompraSimilarComponent&#45;&gt;ProductoModule</title>
<path fill="none" stroke="black" d="M328,-122.04C328,-143.66 328,-177 328,-177 328,-177 1132.92,-177 1132.92,-177"/>
<polygon fill="black" stroke="black" points="1132.92,-180.5 1142.92,-177 1132.92,-173.5 1132.92,-180.5"/>
</g>
<!-- ProductoRelacionadoComponent -->
<g id="node10" class="node">
<title>ProductoRelacionadoComponent</title>
<polygon fill="#ffffb3" stroke="black" points="225.86,-122 24.14,-122 24.14,-86 225.86,-86 225.86,-122"/>
<text text-anchor="middle" x="125" y="-99.8" font-family="Times,serif" font-size="14.00">ProductoRelacionadoComponent</text>
</g>
<!-- ProductoRelacionadoComponent&#45;&gt;ProductoModule -->
<g id="edge10" class="edge">
<title>ProductoRelacionadoComponent&#45;&gt;ProductoModule</title>
<path fill="none" stroke="black" d="M125,-122.09C125,-145.13 125,-182 125,-182 125,-182 1132.94,-182 1132.94,-182"/>
<polygon fill="black" stroke="black" points="1132.94,-185.5 1142.94,-182 1132.94,-178.5 1132.94,-185.5"/>
</g>
<!-- CommonModule -->
<g id="node12" class="node">
<title>CommonModule</title>
<polygon fill="#8dd3c7" stroke="black" points="2245.67,-122 2242.67,-126 2221.67,-126 2218.67,-122 2134.33,-122 2134.33,-86 2245.67,-86 2245.67,-122"/>
<text text-anchor="middle" x="2190" y="-99.8" font-family="Times,serif" font-size="14.00">CommonModule</text>
</g>
<!-- CommonModule&#45;&gt;ProductoModule -->
<g id="edge11" class="edge">
<title>CommonModule&#45;&gt;ProductoModule</title>
<path fill="none" stroke="black" d="M2190,-122.09C2190,-145.13 2190,-182 2190,-182 2190,-182 1263.1,-182 1263.1,-182"/>
<polygon fill="black" stroke="black" points="1263.1,-178.5 1253.1,-182 1263.1,-185.5 1263.1,-178.5"/>
</g>
<!-- ProductoRoutingModule -->
<g id="node13" class="node">
<title>ProductoRoutingModule</title>
<polygon fill="#8dd3c7" stroke="black" points="2116.72,-122 2113.72,-126 2092.72,-126 2089.72,-122 1961.28,-122 1961.28,-86 2116.72,-86 2116.72,-122"/>
<text text-anchor="middle" x="2039" y="-99.8" font-family="Times,serif" font-size="14.00">ProductoRoutingModule</text>
</g>
<!-- ProductoRoutingModule&#45;&gt;ProductoModule -->
<g id="edge12" class="edge">
<title>ProductoRoutingModule&#45;&gt;ProductoModule</title>
<path fill="none" stroke="black" d="M2039,-122.04C2039,-143.66 2039,-177 2039,-177 2039,-177 1263.18,-177 1263.18,-177"/>
<polygon fill="black" stroke="black" points="1263.18,-173.5 1253.18,-177 1263.18,-180.5 1263.18,-173.5"/>
</g>
<!-- SharedModule -->
<g id="node14" class="node">
<title>SharedModule</title>
<polygon fill="#8dd3c7" stroke="black" points="1943.42,-122 1940.42,-126 1919.42,-126 1916.42,-122 1844.58,-122 1844.58,-86 1943.42,-86 1943.42,-122"/>
<text text-anchor="middle" x="1894" y="-99.8" font-family="Times,serif" font-size="14.00">SharedModule</text>
</g>
<!-- SharedModule&#45;&gt;ProductoModule -->
<g id="edge13" class="edge">
<title>SharedModule&#45;&gt;ProductoModule</title>
<path fill="none" stroke="black" d="M1894,-122.22C1894,-142.37 1894,-172 1894,-172 1894,-172 1263.2,-172 1263.2,-172"/>
<polygon fill="black" stroke="black" points="1263.2,-168.5 1253.2,-172 1263.2,-175.5 1263.2,-168.5"/>
</g>
</g>
</svg>
