<?xml version="1.0" encoding="UTF-8" standalone="no"?>
<!DOCTYPE svg PUBLIC "-//W3C//DTD SVG 1.1//EN"
 "http://www.w3.org/Graphics/SVG/1.1/DTD/svg11.dtd">
<!-- Generated by graphviz version 2.46.0 (20210119.1425)
 -->
<!-- Title: dependencies Pages: 1 -->
<svg width="872pt" height="211pt"
 viewBox="0.00 0.00 872.00 211.00" xmlns="http://www.w3.org/2000/svg" xmlns:xlink="http://www.w3.org/1999/xlink">
<g id="graph0" class="graph" transform="scale(1 1) rotate(0) translate(4 207)">
<title>dependencies</title>
<polygon fill="white" stroke="transparent" points="-4,4 -4,-207 868,-207 868,4 -4,4"/>
<text text-anchor="start" x="411.01" y="-42.4" font-family="sans-serif" font-weight="bold" font-size="14.00">Legend</text>
<polygon fill="#ffffb3" stroke="transparent" points="198,-10 198,-30 218,-30 218,-10 198,-10"/>
<text text-anchor="start" x="221.63" y="-15.4" font-family="sans-serif" font-size="14.00"> &#160;Declarations</text>
<polygon fill="#8dd3c7" stroke="transparent" points="311,-10 311,-30 331,-30 331,-10 311,-10"/>
<text text-anchor="start" x="334.73" y="-15.4" font-family="sans-serif" font-size="14.00"> &#160;Module</text>
<polygon fill="#80b1d3" stroke="transparent" points="397,-10 397,-30 417,-30 417,-10 397,-10"/>
<text text-anchor="start" x="420.78" y="-15.4" font-family="sans-serif" font-size="14.00"> &#160;Bootstrap</text>
<polygon fill="#fdb462" stroke="transparent" points="494,-10 494,-30 514,-30 514,-10 494,-10"/>
<text text-anchor="start" x="517.67" y="-15.4" font-family="sans-serif" font-size="14.00"> &#160;Providers</text>
<polygon fill="#fb8072" stroke="transparent" points="590,-10 590,-30 610,-30 610,-10 590,-10"/>
<text text-anchor="start" x="613.73" y="-15.4" font-family="sans-serif" font-size="14.00"> &#160;Exports</text>
<g id="clust1" class="cluster">
<title>cluster_SearchModule</title>
<polygon fill="none" stroke="black" stroke-dasharray="1,5" points="8,-70 8,-195 856,-195 856,-70 8,-70"/>
</g>
<g id="clust2" class="cluster">
<title>cluster_SearchModule_declarations</title>
<polygon fill="none" stroke="black" points="312,-78 312,-130 848,-130 848,-78 312,-78"/>
</g>
<g id="clust6" class="cluster">
<title>cluster_SearchModule_imports</title>
<polygon fill="none" stroke="black" points="16,-78 16,-130 304,-130 304,-78 16,-78"/>
</g>
<!-- SearchComponent -->
<g id="node1" class="node">
<title>SearchComponent</title>
<polygon fill="#ffffb3" stroke="black" points="839.92,-122 720.08,-122 720.08,-86 839.92,-86 839.92,-122"/>
<text text-anchor="middle" x="780" y="-99.8" font-family="Times,serif" font-size="14.00">SearchComponent</text>
</g>
<!-- SearchModule -->
<g id="node4" class="node">
<title>SearchModule</title>
<polygon fill="#8dd3c7" stroke="black" points="456.64,-187 453.64,-191 432.64,-191 429.64,-187 359.36,-187 359.36,-151 456.64,-151 456.64,-187"/>
<text text-anchor="middle" x="408" y="-164.8" font-family="Times,serif" font-size="14.00">SearchModule</text>
</g>
<!-- SearchComponent&#45;&gt;SearchModule -->
<g id="edge1" class="edge">
<title>SearchComponent&#45;&gt;SearchModule</title>
<path fill="none" stroke="black" d="M780,-122.28C780,-143.32 780,-175 780,-175 780,-175 467.02,-175 467.02,-175"/>
<polygon fill="black" stroke="black" points="467.02,-171.5 457.02,-175 467.02,-178.5 467.02,-171.5"/>
</g>
<!-- SearchBreadcrumbComponent -->
<g id="node2" class="node">
<title>SearchBreadcrumbComponent</title>
<polygon fill="#ffffb3" stroke="black" points="702.11,-122 513.89,-122 513.89,-86 702.11,-86 702.11,-122"/>
<text text-anchor="middle" x="608" y="-99.8" font-family="Times,serif" font-size="14.00">SearchBreadcrumbComponent</text>
</g>
<!-- SearchBreadcrumbComponent&#45;&gt;SearchModule -->
<g id="edge2" class="edge">
<title>SearchBreadcrumbComponent&#45;&gt;SearchModule</title>
<path fill="none" stroke="black" d="M608,-122.02C608,-139.37 608,-163 608,-163 608,-163 466.67,-163 466.67,-163"/>
<polygon fill="black" stroke="black" points="466.67,-159.5 456.67,-163 466.67,-166.5 466.67,-159.5"/>
</g>
<!-- SearchShowcaseComponent -->
<g id="node3" class="node">
<title>SearchShowcaseComponent</title>
<polygon fill="#ffffb3" stroke="black" points="495.9,-122 320.1,-122 320.1,-86 495.9,-86 495.9,-122"/>
<text text-anchor="middle" x="408" y="-99.8" font-family="Times,serif" font-size="14.00">SearchShowcaseComponent</text>
</g>
<!-- SearchShowcaseComponent&#45;&gt;SearchModule -->
<g id="edge3" class="edge">
<title>SearchShowcaseComponent&#45;&gt;SearchModule</title>
<path fill="none" stroke="black" d="M408,-122.11C408,-122.11 408,-140.99 408,-140.99"/>
<polygon fill="black" stroke="black" points="404.5,-140.99 408,-150.99 411.5,-140.99 404.5,-140.99"/>
</g>
<!-- CommonModule -->
<g id="node5" class="node">
<title>CommonModule</title>
<polygon fill="#8dd3c7" stroke="black" points="295.67,-122 292.67,-126 271.67,-126 268.67,-122 184.33,-122 184.33,-86 295.67,-86 295.67,-122"/>
<text text-anchor="middle" x="240" y="-99.8" font-family="Times,serif" font-size="14.00">CommonModule</text>
</g>
<!-- CommonModule&#45;&gt;SearchModule -->
<g id="edge4" class="edge">
<title>CommonModule&#45;&gt;SearchModule</title>
<path fill="none" stroke="black" d="M240,-122.02C240,-139.37 240,-163 240,-163 240,-163 348.96,-163 348.96,-163"/>
<polygon fill="black" stroke="black" points="348.96,-166.5 358.96,-163 348.96,-159.5 348.96,-166.5"/>
</g>
<!-- SearchRoutingModule -->
<g id="node6" class="node">
<title>SearchRoutingModule</title>
<polygon fill="#8dd3c7" stroke="black" points="166.25,-122 163.25,-126 142.25,-126 139.25,-122 23.75,-122 23.75,-86 166.25,-86 166.25,-122"/>
<text text-anchor="middle" x="95" y="-99.8" font-family="Times,serif" font-size="14.00">SearchRoutingModule</text>
</g>
<!-- SearchRoutingModule&#45;&gt;SearchModule -->
<g id="edge5" class="edge">
<title>SearchRoutingModule&#45;&gt;SearchModule</title>
<path fill="none" stroke="black" d="M95,-122.28C95,-143.32 95,-175 95,-175 95,-175 349.09,-175 349.09,-175"/>
<polygon fill="black" stroke="black" points="349.09,-178.5 359.09,-175 349.09,-171.5 349.09,-178.5"/>
</g>
</g>
</svg>
