<?xml version="1.0" encoding="UTF-8" standalone="no"?>
<!DOCTYPE svg PUBLIC "-//W3C//DTD SVG 1.1//EN"
 "http://www.w3.org/Graphics/SVG/1.1/DTD/svg11.dtd">
<!-- Generated by graphviz version 2.46.0 (20210119.1425)
 -->
<!-- Title: dependencies Pages: 1 -->
<svg width="1666pt" height="211pt"
 viewBox="0.00 0.00 1666.00 211.00" xmlns="http://www.w3.org/2000/svg" xmlns:xlink="http://www.w3.org/1999/xlink">
<g id="graph0" class="graph" transform="scale(1 1) rotate(0) translate(4 207)">
<title>dependencies</title>
<polygon fill="white" stroke="transparent" points="-4,4 -4,-207 1662,-207 1662,4 -4,4"/>
<text text-anchor="start" x="808.01" y="-42.4" font-family="sans-serif" font-weight="bold" font-size="14.00">Legend</text>
<polygon fill="#ffffb3" stroke="transparent" points="595,-10 595,-30 615,-30 615,-10 595,-10"/>
<text text-anchor="start" x="618.63" y="-15.4" font-family="sans-serif" font-size="14.00"> &#160;Declarations</text>
<polygon fill="#8dd3c7" stroke="transparent" points="708,-10 708,-30 728,-30 728,-10 708,-10"/>
<text text-anchor="start" x="731.73" y="-15.4" font-family="sans-serif" font-size="14.00"> &#160;Module</text>
<polygon fill="#80b1d3" stroke="transparent" points="794,-10 794,-30 814,-30 814,-10 794,-10"/>
<text text-anchor="start" x="817.78" y="-15.4" font-family="sans-serif" font-size="14.00"> &#160;Bootstrap</text>
<polygon fill="#fdb462" stroke="transparent" points="891,-10 891,-30 911,-30 911,-10 891,-10"/>
<text text-anchor="start" x="914.67" y="-15.4" font-family="sans-serif" font-size="14.00"> &#160;Providers</text>
<polygon fill="#fb8072" stroke="transparent" points="987,-10 987,-30 1007,-30 1007,-10 987,-10"/>
<text text-anchor="start" x="1010.73" y="-15.4" font-family="sans-serif" font-size="14.00"> &#160;Exports</text>
<g id="clust1" class="cluster">
<title>cluster_CuentaUsuarioModule</title>
<polygon fill="none" stroke="black" stroke-dasharray="1,5" points="8,-70 8,-195 1650,-195 1650,-70 8,-70"/>
</g>
<g id="clust7" class="cluster">
<title>cluster_CuentaUsuarioModule_imports</title>
<polygon fill="none" stroke="black" points="725,-78 725,-130 1642,-130 1642,-78 725,-78"/>
</g>
<g id="clust2" class="cluster">
<title>cluster_CuentaUsuarioModule_declarations</title>
<polygon fill="none" stroke="black" points="16,-78 16,-130 717,-130 717,-78 16,-78"/>
</g>
<!-- CuentaComponent -->
<g id="node1" class="node">
<title>CuentaComponent</title>
<polygon fill="#ffffb3" stroke="black" points="709.49,-122 588.51,-122 588.51,-86 709.49,-86 709.49,-122"/>
<text text-anchor="middle" x="649" y="-99.8" font-family="Times,serif" font-size="14.00">CuentaComponent</text>
</g>
<!-- CuentaUsuarioModule -->
<g id="node5" class="node">
<title>CuentaUsuarioModule</title>
<polygon fill="#8dd3c7" stroke="black" points="935.52,-187 932.52,-191 911.52,-191 908.52,-187 792.48,-187 792.48,-151 935.52,-151 935.52,-187"/>
<text text-anchor="middle" x="864" y="-164.8" font-family="Times,serif" font-size="14.00">CuentaUsuarioModule</text>
</g>
<!-- CuentaComponent&#45;&gt;CuentaUsuarioModule -->
<g id="edge1" class="edge">
<title>CuentaComponent&#45;&gt;CuentaUsuarioModule</title>
<path fill="none" stroke="black" d="M649,-122.01C649,-138.05 649,-159 649,-159 649,-159 782.41,-159 782.41,-159"/>
<polygon fill="black" stroke="black" points="782.41,-162.5 792.41,-159 782.41,-155.5 782.41,-162.5"/>
</g>
<!-- CuentaPerfilComponent -->
<g id="node2" class="node">
<title>CuentaPerfilComponent</title>
<polygon fill="#ffffb3" stroke="black" points="570.09,-122 417.91,-122 417.91,-86 570.09,-86 570.09,-122"/>
<text text-anchor="middle" x="494" y="-99.8" font-family="Times,serif" font-size="14.00">CuentaPerfilComponent</text>
</g>
<!-- CuentaPerfilComponent&#45;&gt;CuentaUsuarioModule -->
<g id="edge2" class="edge">
<title>CuentaPerfilComponent&#45;&gt;CuentaUsuarioModule</title>
<path fill="none" stroke="black" d="M494,-122.27C494,-140.56 494,-166 494,-166 494,-166 782.22,-166 782.22,-166"/>
<polygon fill="black" stroke="black" points="782.22,-169.5 792.22,-166 782.22,-162.5 782.22,-169.5"/>
</g>
<!-- CuentaBreadcrumbComponent -->
<g id="node3" class="node">
<title>CuentaBreadcrumbComponent</title>
<polygon fill="#ffffb3" stroke="black" points="400.18,-122 209.82,-122 209.82,-86 400.18,-86 400.18,-122"/>
<text text-anchor="middle" x="305" y="-99.8" font-family="Times,serif" font-size="14.00">CuentaBreadcrumbComponent</text>
</g>
<!-- CuentaBreadcrumbComponent&#45;&gt;CuentaUsuarioModule -->
<g id="edge3" class="edge">
<title>CuentaBreadcrumbComponent&#45;&gt;CuentaUsuarioModule</title>
<path fill="none" stroke="black" d="M305,-122.13C305,-142.57 305,-173 305,-173 305,-173 782.35,-173 782.35,-173"/>
<polygon fill="black" stroke="black" points="782.35,-176.5 792.35,-173 782.35,-169.5 782.35,-176.5"/>
</g>
<!-- CuentaWishlistComponent -->
<g id="node4" class="node">
<title>CuentaWishlistComponent</title>
<polygon fill="#ffffb3" stroke="black" points="191.66,-122 24.34,-122 24.34,-86 191.66,-86 191.66,-122"/>
<text text-anchor="middle" x="108" y="-99.8" font-family="Times,serif" font-size="14.00">CuentaWishlistComponent</text>
</g>
<!-- CuentaWishlistComponent&#45;&gt;CuentaUsuarioModule -->
<g id="edge4" class="edge">
<title>CuentaWishlistComponent&#45;&gt;CuentaUsuarioModule</title>
<path fill="none" stroke="black" d="M108,-122.01C108,-144.49 108,-180 108,-180 108,-180 782.2,-180 782.2,-180"/>
<polygon fill="black" stroke="black" points="782.2,-183.5 792.2,-180 782.2,-176.5 782.2,-183.5"/>
</g>
<!-- CommonModule -->
<g id="node6" class="node">
<title>CommonModule</title>
<polygon fill="#8dd3c7" stroke="black" points="1633.67,-122 1630.67,-126 1609.67,-126 1606.67,-122 1522.33,-122 1522.33,-86 1633.67,-86 1633.67,-122"/>
<text text-anchor="middle" x="1578" y="-99.8" font-family="Times,serif" font-size="14.00">CommonModule</text>
</g>
<!-- CommonModule&#45;&gt;CuentaUsuarioModule -->
<g id="edge5" class="edge">
<title>CommonModule&#45;&gt;CuentaUsuarioModule</title>
<path fill="none" stroke="black" d="M1578,-122.01C1578,-144.49 1578,-180 1578,-180 1578,-180 945.73,-180 945.73,-180"/>
<polygon fill="black" stroke="black" points="945.73,-176.5 935.73,-180 945.73,-183.5 945.73,-176.5"/>
</g>
<!-- CuentaUsuarioRoutingModule -->
<g id="node7" class="node">
<title>CuentaUsuarioRoutingModule</title>
<polygon fill="#8dd3c7" stroke="black" points="1504.14,-122 1501.14,-126 1480.14,-126 1477.14,-122 1315.86,-122 1315.86,-86 1504.14,-86 1504.14,-122"/>
<text text-anchor="middle" x="1410" y="-99.8" font-family="Times,serif" font-size="14.00">CuentaUsuarioRoutingModule</text>
</g>
<!-- CuentaUsuarioRoutingModule&#45;&gt;CuentaUsuarioModule -->
<g id="edge6" class="edge">
<title>CuentaUsuarioRoutingModule&#45;&gt;CuentaUsuarioModule</title>
<path fill="none" stroke="black" d="M1410,-122.13C1410,-142.57 1410,-173 1410,-173 1410,-173 945.66,-173 945.66,-173"/>
<polygon fill="black" stroke="black" points="945.66,-169.5 935.66,-173 945.66,-176.5 945.66,-169.5"/>
</g>
<!-- ReactiveFormsModule -->
<g id="node8" class="node">
<title>ReactiveFormsModule</title>
<polygon fill="#8dd3c7" stroke="black" points="1298.3,-122 1295.3,-126 1274.3,-126 1271.3,-122 1153.7,-122 1153.7,-86 1298.3,-86 1298.3,-122"/>
<text text-anchor="middle" x="1226" y="-99.8" font-family="Times,serif" font-size="14.00">ReactiveFormsModule</text>
</g>
<!-- ReactiveFormsModule&#45;&gt;CuentaUsuarioModule -->
<g id="edge7" class="edge">
<title>ReactiveFormsModule&#45;&gt;CuentaUsuarioModule</title>
<path fill="none" stroke="black" d="M1226,-122.27C1226,-140.56 1226,-166 1226,-166 1226,-166 945.95,-166 945.95,-166"/>
<polygon fill="black" stroke="black" points="945.95,-162.5 935.95,-166 945.95,-169.5 945.95,-162.5"/>
</g>
<!-- DataTablesModule -->
<g id="node9" class="node">
<title>DataTablesModule</title>
<polygon fill="#8dd3c7" stroke="black" points="1135.79,-122 1132.79,-126 1111.79,-126 1108.79,-122 1012.21,-122 1012.21,-86 1135.79,-86 1135.79,-122"/>
<text text-anchor="middle" x="1074" y="-99.8" font-family="Times,serif" font-size="14.00">DataTablesModule</text>
</g>
<!-- DataTablesModule&#45;&gt;CuentaUsuarioModule -->
<g id="edge8" class="edge">
<title>DataTablesModule&#45;&gt;CuentaUsuarioModule</title>
<path fill="none" stroke="black" d="M1074,-122.01C1074,-138.05 1074,-159 1074,-159 1074,-159 945.68,-159 945.68,-159"/>
<polygon fill="black" stroke="black" points="945.68,-155.5 935.68,-159 945.68,-162.5 945.68,-155.5"/>
</g>
<!-- ConfirmationPopoverModule.forRoot(args) -->
<g id="node10" class="node">
<title>ConfirmationPopoverModule.forRoot(args)</title>
<polygon fill="#8dd3c7" stroke="black" points="994.83,-122 991.83,-126 970.83,-126 967.83,-122 733.17,-122 733.17,-86 994.83,-86 994.83,-122"/>
<text text-anchor="middle" x="864" y="-99.8" font-family="Times,serif" font-size="14.00">ConfirmationPopoverModule.forRoot(args)</text>
</g>
<!-- ConfirmationPopoverModule.forRoot(args)&#45;&gt;CuentaUsuarioModule -->
<g id="edge9" class="edge">
<title>ConfirmationPopoverModule.forRoot(args)&#45;&gt;CuentaUsuarioModule</title>
<path fill="none" stroke="black" d="M864,-122.11C864,-122.11 864,-140.99 864,-140.99"/>
<polygon fill="black" stroke="black" points="860.5,-140.99 864,-150.99 867.5,-140.99 860.5,-140.99"/>
</g>
</g>
</svg>
