<?xml version="1.0" encoding="UTF-8" standalone="no"?>
<!DOCTYPE svg PUBLIC "-//W3C//DTD SVG 1.1//EN"
 "http://www.w3.org/Graphics/SVG/1.1/DTD/svg11.dtd">
<!-- Generated by graphviz version 2.46.0 (20210119.1425)
 -->
<!-- Title: dependencies Pages: 1 -->
<svg width="1613pt" height="211pt"
 viewBox="0.00 0.00 1613.00 211.00" xmlns="http://www.w3.org/2000/svg" xmlns:xlink="http://www.w3.org/1999/xlink">
<g id="graph0" class="graph" transform="scale(1 1) rotate(0) translate(4 207)">
<title>dependencies</title>
<polygon fill="white" stroke="transparent" points="-4,4 -4,-207 1609,-207 1609,4 -4,4"/>
<text text-anchor="start" x="781.51" y="-42.4" font-family="sans-serif" font-weight="bold" font-size="14.00">Legend</text>
<polygon fill="#ffffb3" stroke="transparent" points="568.5,-10 568.5,-30 588.5,-30 588.5,-10 568.5,-10"/>
<text text-anchor="start" x="592.13" y="-15.4" font-family="sans-serif" font-size="14.00"> &#160;Declarations</text>
<polygon fill="#8dd3c7" stroke="transparent" points="681.5,-10 681.5,-30 701.5,-30 701.5,-10 681.5,-10"/>
<text text-anchor="start" x="705.23" y="-15.4" font-family="sans-serif" font-size="14.00"> &#160;Module</text>
<polygon fill="#80b1d3" stroke="transparent" points="767.5,-10 767.5,-30 787.5,-30 787.5,-10 767.5,-10"/>
<text text-anchor="start" x="791.28" y="-15.4" font-family="sans-serif" font-size="14.00"> &#160;Bootstrap</text>
<polygon fill="#fdb462" stroke="transparent" points="864.5,-10 864.5,-30 884.5,-30 884.5,-10 864.5,-10"/>
<text text-anchor="start" x="888.17" y="-15.4" font-family="sans-serif" font-size="14.00"> &#160;Providers</text>
<polygon fill="#fb8072" stroke="transparent" points="960.5,-10 960.5,-30 980.5,-30 980.5,-10 960.5,-10"/>
<text text-anchor="start" x="984.23" y="-15.4" font-family="sans-serif" font-size="14.00"> &#160;Exports</text>
<g id="clust1" class="cluster">
<title>cluster_HomeModule</title>
<polygon fill="none" stroke="black" stroke-dasharray="1,5" points="8,-70 8,-195 1597,-195 1597,-70 8,-70"/>
</g>
<g id="clust2" class="cluster">
<title>cluster_HomeModule_declarations</title>
<polygon fill="none" stroke="black" points="308,-78 308,-130 1589,-130 1589,-78 308,-78"/>
</g>
<g id="clust10" class="cluster">
<title>cluster_HomeModule_imports</title>
<polygon fill="none" stroke="black" points="16,-78 16,-130 300,-130 300,-78 16,-78"/>
</g>
<!-- HomeComponent -->
<g id="node1" class="node">
<title>HomeComponent</title>
<polygon fill="#ffffb3" stroke="black" points="1580.55,-122 1465.45,-122 1465.45,-86 1580.55,-86 1580.55,-122"/>
<text text-anchor="middle" x="1523" y="-99.8" font-family="Times,serif" font-size="14.00">HomeComponent</text>
</g>
<!-- HomeModule -->
<g id="node8" class="node">
<title>HomeModule</title>
<polygon fill="#8dd3c7" stroke="black" points="854.76,-187 851.76,-191 830.76,-191 827.76,-187 761.24,-187 761.24,-151 854.76,-151 854.76,-187"/>
<text text-anchor="middle" x="808" y="-164.8" font-family="Times,serif" font-size="14.00">HomeModule</text>
</g>
<!-- HomeComponent&#45;&gt;HomeModule -->
<g id="edge1" class="edge">
<title>HomeComponent&#45;&gt;HomeModule</title>
<path fill="none" stroke="black" d="M1523,-122.01C1523,-144.49 1523,-180 1523,-180 1523,-180 864.91,-180 864.91,-180"/>
<polygon fill="black" stroke="black" points="864.91,-176.5 854.91,-180 864.91,-183.5 864.91,-176.5"/>
</g>
<!-- HomeBannerComponent -->
<g id="node2" class="node">
<title>HomeBannerComponent</title>
<polygon fill="#ffffb3" stroke="black" points="1446.97,-122 1291.03,-122 1291.03,-86 1446.97,-86 1446.97,-122"/>
<text text-anchor="middle" x="1369" y="-99.8" font-family="Times,serif" font-size="14.00">HomeBannerComponent</text>
</g>
<!-- HomeBannerComponent&#45;&gt;HomeModule -->
<g id="edge2" class="edge">
<title>HomeBannerComponent&#45;&gt;HomeModule</title>
<path fill="none" stroke="black" d="M1369,-122.13C1369,-142.57 1369,-173 1369,-173 1369,-173 864.87,-173 864.87,-173"/>
<polygon fill="black" stroke="black" points="864.87,-169.5 854.87,-173 864.87,-176.5 864.87,-169.5"/>
</g>
<!-- HomeFeaturesComponent -->
<g id="node3" class="node">
<title>HomeFeaturesComponent</title>
<polygon fill="#ffffb3" stroke="black" points="1273.47,-122 1110.53,-122 1110.53,-86 1273.47,-86 1273.47,-122"/>
<text text-anchor="middle" x="1192" y="-99.8" font-family="Times,serif" font-size="14.00">HomeFeaturesComponent</text>
</g>
<!-- HomeFeaturesComponent&#45;&gt;HomeModule -->
<g id="edge3" class="edge">
<title>HomeFeaturesComponent&#45;&gt;HomeModule</title>
<path fill="none" stroke="black" d="M1192,-122.27C1192,-140.56 1192,-166 1192,-166 1192,-166 865.09,-166 865.09,-166"/>
<polygon fill="black" stroke="black" points="865.09,-162.5 855.09,-166 865.09,-169.5 865.09,-162.5"/>
</g>
<!-- HomePromotionsComponent -->
<g id="node4" class="node">
<title>HomePromotionsComponent</title>
<polygon fill="#ffffb3" stroke="black" points="1092.1,-122 911.9,-122 911.9,-86 1092.1,-86 1092.1,-122"/>
<text text-anchor="middle" x="1002" y="-99.8" font-family="Times,serif" font-size="14.00">HomePromotionsComponent</text>
</g>
<!-- HomePromotionsComponent&#45;&gt;HomeModule -->
<g id="edge4" class="edge">
<title>HomePromotionsComponent&#45;&gt;HomeModule</title>
<path fill="none" stroke="black" d="M1002,-122.01C1002,-138.05 1002,-159 1002,-159 1002,-159 864.96,-159 864.96,-159"/>
<polygon fill="black" stroke="black" points="864.96,-155.5 854.96,-159 864.96,-162.5 864.96,-155.5"/>
</g>
<!-- HomeHotTodayComponent -->
<g id="node5" class="node">
<title>HomeHotTodayComponent</title>
<polygon fill="#ffffb3" stroke="black" points="894.31,-122 721.69,-122 721.69,-86 894.31,-86 894.31,-122"/>
<text text-anchor="middle" x="808" y="-99.8" font-family="Times,serif" font-size="14.00">HomeHotTodayComponent</text>
</g>
<!-- HomeHotTodayComponent&#45;&gt;HomeModule -->
<g id="edge5" class="edge">
<title>HomeHotTodayComponent&#45;&gt;HomeModule</title>
<path fill="none" stroke="black" d="M808,-122.11C808,-122.11 808,-140.99 808,-140.99"/>
<polygon fill="black" stroke="black" points="804.5,-140.99 808,-150.99 811.5,-140.99 804.5,-140.99"/>
</g>
<!-- HomeTopCategoriesComponent -->
<g id="node6" class="node">
<title>HomeTopCategoriesComponent</title>
<polygon fill="#ffffb3" stroke="black" points="703.96,-122 506.04,-122 506.04,-86 703.96,-86 703.96,-122"/>
<text text-anchor="middle" x="605" y="-99.8" font-family="Times,serif" font-size="14.00">HomeTopCategoriesComponent</text>
</g>
<!-- HomeTopCategoriesComponent&#45;&gt;HomeModule -->
<g id="edge6" class="edge">
<title>HomeTopCategoriesComponent&#45;&gt;HomeModule</title>
<path fill="none" stroke="black" d="M605,-122.01C605,-138.05 605,-159 605,-159 605,-159 751.17,-159 751.17,-159"/>
<polygon fill="black" stroke="black" points="751.17,-162.5 761.17,-159 751.17,-155.5 751.17,-162.5"/>
</g>
<!-- HomeShowcaseComponent -->
<g id="node7" class="node">
<title>HomeShowcaseComponent</title>
<polygon fill="#ffffb3" stroke="black" points="487.52,-122 316.48,-122 316.48,-86 487.52,-86 487.52,-122"/>
<text text-anchor="middle" x="402" y="-99.8" font-family="Times,serif" font-size="14.00">HomeShowcaseComponent</text>
</g>
<!-- HomeShowcaseComponent&#45;&gt;HomeModule -->
<g id="edge7" class="edge">
<title>HomeShowcaseComponent&#45;&gt;HomeModule</title>
<path fill="none" stroke="black" d="M402,-122.27C402,-140.56 402,-166 402,-166 402,-166 751.03,-166 751.03,-166"/>
<polygon fill="black" stroke="black" points="751.03,-169.5 761.03,-166 751.03,-162.5 751.03,-169.5"/>
</g>
<!-- CommonModule -->
<g id="node9" class="node">
<title>CommonModule</title>
<polygon fill="#8dd3c7" stroke="black" points="291.67,-122 288.67,-126 267.67,-126 264.67,-122 180.33,-122 180.33,-86 291.67,-86 291.67,-122"/>
<text text-anchor="middle" x="236" y="-99.8" font-family="Times,serif" font-size="14.00">CommonModule</text>
</g>
<!-- CommonModule&#45;&gt;HomeModule -->
<g id="edge8" class="edge">
<title>CommonModule&#45;&gt;HomeModule</title>
<path fill="none" stroke="black" d="M236,-122.13C236,-142.57 236,-173 236,-173 236,-173 751.19,-173 751.19,-173"/>
<polygon fill="black" stroke="black" points="751.19,-176.5 761.19,-173 751.19,-169.5 751.19,-176.5"/>
</g>
<!-- HomeRoutingModule -->
<g id="node10" class="node">
<title>HomeRoutingModule</title>
<polygon fill="#8dd3c7" stroke="black" points="162.38,-122 159.38,-126 138.38,-126 135.38,-122 23.62,-122 23.62,-86 162.38,-86 162.38,-122"/>
<text text-anchor="middle" x="93" y="-99.8" font-family="Times,serif" font-size="14.00">HomeRoutingModule</text>
</g>
<!-- HomeRoutingModule&#45;&gt;HomeModule -->
<g id="edge9" class="edge">
<title>HomeRoutingModule&#45;&gt;HomeModule</title>
<path fill="none" stroke="black" d="M93,-122.01C93,-144.49 93,-180 93,-180 93,-180 751.09,-180 751.09,-180"/>
<polygon fill="black" stroke="black" points="751.09,-183.5 761.09,-180 751.09,-176.5 751.09,-183.5"/>
</g>
</g>
</svg>
