<?xml version="1.0" encoding="UTF-8" standalone="no"?>
<!DOCTYPE svg PUBLIC "-//W3C//DTD SVG 1.1//EN"
 "http://www.w3.org/Graphics/SVG/1.1/DTD/svg11.dtd">
<!-- Generated by graphviz version 2.46.0 (20210119.1425)
 -->
<!-- Title: dependencies Pages: 1 -->
<svg width="3013pt" height="284pt"
 viewBox="0.00 0.00 3013.00 284.00" xmlns="http://www.w3.org/2000/svg" xmlns:xlink="http://www.w3.org/1999/xlink">
<g id="graph0" class="graph" transform="scale(1 1) rotate(0) translate(4 280)">
<title>dependencies</title>
<polygon fill="white" stroke="transparent" points="-4,4 -4,-280 3009,-280 3009,4 -4,4"/>
<text text-anchor="start" x="1481.51" y="-42.4" font-family="sans-serif" font-weight="bold" font-size="14.00">Legend</text>
<polygon fill="#ffffb3" stroke="transparent" points="1268.5,-10 1268.5,-30 1288.5,-30 1288.5,-10 1268.5,-10"/>
<text text-anchor="start" x="1292.13" y="-15.4" font-family="sans-serif" font-size="14.00"> &#160;Declarations</text>
<polygon fill="#8dd3c7" stroke="transparent" points="1381.5,-10 1381.5,-30 1401.5,-30 1401.5,-10 1381.5,-10"/>
<text text-anchor="start" x="1405.23" y="-15.4" font-family="sans-serif" font-size="14.00"> &#160;Module</text>
<polygon fill="#80b1d3" stroke="transparent" points="1467.5,-10 1467.5,-30 1487.5,-30 1487.5,-10 1467.5,-10"/>
<text text-anchor="start" x="1491.28" y="-15.4" font-family="sans-serif" font-size="14.00"> &#160;Bootstrap</text>
<polygon fill="#fdb462" stroke="transparent" points="1564.5,-10 1564.5,-30 1584.5,-30 1584.5,-10 1564.5,-10"/>
<text text-anchor="start" x="1588.17" y="-15.4" font-family="sans-serif" font-size="14.00"> &#160;Providers</text>
<polygon fill="#fb8072" stroke="transparent" points="1660.5,-10 1660.5,-30 1680.5,-30 1680.5,-10 1660.5,-10"/>
<text text-anchor="start" x="1684.23" y="-15.4" font-family="sans-serif" font-size="14.00"> &#160;Exports</text>
<g id="clust1" class="cluster">
<title>cluster_AppModule</title>
<polygon fill="none" stroke="black" stroke-dasharray="1,5" points="8,-70 8,-268 2997,-268 2997,-70 8,-70"/>
</g>
<g id="clust2" class="cluster">
<title>cluster_AppModule_declarations</title>
<polygon fill="none" stroke="black" points="1929,-78 1929,-130 2989,-130 2989,-78 1929,-78"/>
</g>
<g id="clust10" class="cluster">
<title>cluster_AppModule_imports</title>
<polygon fill="none" stroke="black" points="16,-78 16,-130 1921,-130 1921,-78 16,-78"/>
</g>
<g id="clust12" class="cluster">
<title>cluster_AppModule_bootstrap</title>
<polygon fill="none" stroke="black" points="1545,-208 1545,-260 1669,-260 1669,-208 1545,-208"/>
</g>
<!-- AppComponent -->
<g id="node1" class="node">
<title>AppComponent</title>
<polygon fill="#ffffb3" stroke="black" points="2980.94,-122 2875.06,-122 2875.06,-86 2980.94,-86 2980.94,-122"/>
<text text-anchor="middle" x="2928" y="-99.8" font-family="Times,serif" font-size="14.00">AppComponent</text>
</g>
<!-- AppModule -->
<g id="node8" class="node">
<title>AppModule</title>
<polygon fill="#8dd3c7" stroke="black" points="1648.66,-187 1645.66,-191 1624.66,-191 1621.66,-187 1565.34,-187 1565.34,-151 1648.66,-151 1648.66,-187"/>
<text text-anchor="middle" x="1607" y="-164.8" font-family="Times,serif" font-size="14.00">AppModule</text>
</g>
<!-- AppComponent&#45;&gt;AppModule -->
<g id="edge1" class="edge">
<title>AppComponent&#45;&gt;AppModule</title>
<path fill="none" stroke="black" d="M2928,-122.15C2928,-145.76 2928,-184 2928,-184 2928,-184 1658.72,-184 1658.72,-184"/>
<polygon fill="black" stroke="black" points="1658.72,-180.5 1648.72,-184 1658.72,-187.5 1658.72,-180.5"/>
</g>
<!-- LayoutComponent -->
<g id="node2" class="node">
<title>LayoutComponent</title>
<polygon fill="#ffffb3" stroke="black" points="2857.49,-122 2736.51,-122 2736.51,-86 2857.49,-86 2857.49,-122"/>
<text text-anchor="middle" x="2797" y="-99.8" font-family="Times,serif" font-size="14.00">LayoutComponent</text>
</g>
<!-- LayoutComponent&#45;&gt;AppModule -->
<g id="edge2" class="edge">
<title>LayoutComponent&#45;&gt;AppModule</title>
<path fill="none" stroke="black" d="M2797,-122.01C2797,-144.49 2797,-180 2797,-180 2797,-180 1659,-180 1659,-180"/>
<polygon fill="black" stroke="black" points="1659,-176.5 1649,-180 1659,-183.5 1659,-176.5"/>
</g>
<!-- PageNotFoundComponent -->
<g id="node3" class="node">
<title>PageNotFoundComponent</title>
<polygon fill="#ffffb3" stroke="black" points="2718.82,-122 2553.18,-122 2553.18,-86 2718.82,-86 2718.82,-122"/>
<text text-anchor="middle" x="2636" y="-99.8" font-family="Times,serif" font-size="14.00">PageNotFoundComponent</text>
</g>
<!-- PageNotFoundComponent&#45;&gt;AppModule -->
<g id="edge3" class="edge">
<title>PageNotFoundComponent&#45;&gt;AppModule</title>
<path fill="none" stroke="black" d="M2636,-122.04C2636,-143.66 2636,-177 2636,-177 2636,-177 1658.93,-177 1658.93,-177"/>
<polygon fill="black" stroke="black" points="1658.93,-173.5 1648.93,-177 1658.93,-180.5 1658.93,-173.5"/>
</g>
<!-- LoginComponent -->
<g id="node4" class="node">
<title>LoginComponent</title>
<polygon fill="#ffffb3" stroke="black" points="2535.28,-122 2420.72,-122 2420.72,-86 2535.28,-86 2535.28,-122"/>
<text text-anchor="middle" x="2478" y="-99.8" font-family="Times,serif" font-size="14.00">LoginComponent</text>
</g>
<!-- LoginComponent&#45;&gt;AppModule -->
<g id="edge4" class="edge">
<title>LoginComponent&#45;&gt;AppModule</title>
<path fill="none" stroke="black" d="M2478,-122.13C2478,-142.57 2478,-173 2478,-173 2478,-173 1658.72,-173 1658.72,-173"/>
<polygon fill="black" stroke="black" points="1658.72,-169.5 1648.72,-173 1658.72,-176.5 1658.72,-169.5"/>
</g>
<!-- RegistroComponent -->
<g id="node5" class="node">
<title>RegistroComponent</title>
<polygon fill="#ffffb3" stroke="black" points="2402.27,-122 2273.73,-122 2273.73,-86 2402.27,-86 2402.27,-122"/>
<text text-anchor="middle" x="2338" y="-99.8" font-family="Times,serif" font-size="14.00">RegistroComponent</text>
</g>
<!-- RegistroComponent&#45;&gt;AppModule -->
<g id="edge5" class="edge">
<title>RegistroComponent&#45;&gt;AppModule</title>
<path fill="none" stroke="black" d="M2338,-122.11C2338,-141.34 2338,-169 2338,-169 2338,-169 1658.66,-169 1658.66,-169"/>
<polygon fill="black" stroke="black" points="1658.66,-165.5 1648.66,-169 1658.66,-172.5 1658.66,-165.5"/>
</g>
<!-- CarritoCompraComponent -->
<g id="node6" class="node">
<title>CarritoCompraComponent</title>
<polygon fill="#ffffb3" stroke="black" points="2256.09,-122 2089.91,-122 2089.91,-86 2256.09,-86 2256.09,-122"/>
<text text-anchor="middle" x="2173" y="-99.8" font-family="Times,serif" font-size="14.00">CarritoCompraComponent</text>
</g>
<!-- CarritoCompraComponent&#45;&gt;AppModule -->
<g id="edge6" class="edge">
<title>CarritoCompraComponent&#45;&gt;AppModule</title>
<path fill="none" stroke="black" d="M2173,-122.27C2173,-140.56 2173,-166 2173,-166 2173,-166 1659.08,-166 1659.08,-166"/>
<polygon fill="black" stroke="black" points="1659.08,-162.5 1649.08,-166 1659.08,-169.5 1659.08,-162.5"/>
</g>
<!-- CheckoutComponent -->
<g id="node7" class="node">
<title>CheckoutComponent</title>
<polygon fill="#ffffb3" stroke="black" points="2071.49,-122 1936.51,-122 1936.51,-86 2071.49,-86 2071.49,-122"/>
<text text-anchor="middle" x="2004" y="-99.8" font-family="Times,serif" font-size="14.00">CheckoutComponent</text>
</g>
<!-- CheckoutComponent&#45;&gt;AppModule -->
<g id="edge7" class="edge">
<title>CheckoutComponent&#45;&gt;AppModule</title>
<path fill="none" stroke="black" d="M2004,-122.03C2004,-139.06 2004,-162 2004,-162 2004,-162 1658.74,-162 1658.74,-162"/>
<polygon fill="black" stroke="black" points="1658.74,-158.5 1648.74,-162 1658.74,-165.5 1658.74,-158.5"/>
</g>
<!-- AppComponent  -->
<g id="node21" class="node">
<title>AppComponent </title>
<polygon fill="#80b1d3" stroke="black" points="1661.44,-252 1552.56,-252 1552.56,-216 1661.44,-216 1661.44,-252"/>
<text text-anchor="middle" x="1607" y="-229.8" font-family="Times,serif" font-size="14.00">AppComponent </text>
</g>
<!-- AppModule&#45;&gt;AppComponent  -->
<g id="edge20" class="edge">
<title>AppModule&#45;&gt;AppComponent </title>
<path fill="none" stroke="black" stroke-dasharray="1,5" d="M1607,-187.11C1607,-187.11 1607,-205.99 1607,-205.99"/>
<polygon fill="black" stroke="black" points="1603.5,-205.99 1607,-215.99 1610.5,-205.99 1603.5,-205.99"/>
</g>
<!-- BrowserModule -->
<g id="node9" class="node">
<title>BrowserModule</title>
<polygon fill="#8dd3c7" stroke="black" points="1913.47,-122 1910.47,-126 1889.47,-126 1886.47,-122 1806.53,-122 1806.53,-86 1913.47,-86 1913.47,-122"/>
<text text-anchor="middle" x="1860" y="-99.8" font-family="Times,serif" font-size="14.00">BrowserModule</text>
</g>
<!-- BrowserModule&#45;&gt;AppModule -->
<g id="edge8" class="edge">
<title>BrowserModule&#45;&gt;AppModule</title>
<path fill="none" stroke="black" d="M1860,-122.01C1860,-138.05 1860,-159 1860,-159 1860,-159 1658.78,-159 1658.78,-159"/>
<polygon fill="black" stroke="black" points="1658.78,-155.5 1648.78,-159 1658.78,-162.5 1658.78,-155.5"/>
</g>
<!-- SharedModule -->
<g id="node10" class="node">
<title>SharedModule</title>
<polygon fill="#8dd3c7" stroke="black" points="1788.42,-122 1785.42,-126 1764.42,-126 1761.42,-122 1689.58,-122 1689.58,-86 1788.42,-86 1788.42,-122"/>
<text text-anchor="middle" x="1739" y="-99.8" font-family="Times,serif" font-size="14.00">SharedModule</text>
</g>
<!-- SharedModule&#45;&gt;AppModule -->
<g id="edge9" class="edge">
<title>SharedModule&#45;&gt;AppModule</title>
<path fill="none" stroke="black" d="M1739,-122.12C1739,-136.78 1739,-155 1739,-155 1739,-155 1658.77,-155 1658.77,-155"/>
<polygon fill="black" stroke="black" points="1658.77,-151.5 1648.77,-155 1658.77,-158.5 1658.77,-151.5"/>
</g>
<!-- AppRoutingModule -->
<g id="node11" class="node">
<title>AppRoutingModule</title>
<polygon fill="#8dd3c7" stroke="black" points="1671.27,-122 1668.27,-126 1647.27,-126 1644.27,-122 1542.73,-122 1542.73,-86 1671.27,-86 1671.27,-122"/>
<text text-anchor="middle" x="1607" y="-99.8" font-family="Times,serif" font-size="14.00">AppRoutingModule</text>
</g>
<!-- AppRoutingModule&#45;&gt;AppModule -->
<g id="edge10" class="edge">
<title>AppRoutingModule&#45;&gt;AppModule</title>
<path fill="none" stroke="black" d="M1607,-122.11C1607,-122.11 1607,-140.99 1607,-140.99"/>
<polygon fill="black" stroke="black" points="1603.5,-140.99 1607,-150.99 1610.5,-140.99 1603.5,-140.99"/>
</g>
<!-- CoreModule -->
<g id="node12" class="node">
<title>CoreModule</title>
<polygon fill="#8dd3c7" stroke="black" points="1524.26,-122 1521.26,-126 1500.26,-126 1497.26,-122 1437.74,-122 1437.74,-86 1524.26,-86 1524.26,-122"/>
<text text-anchor="middle" x="1481" y="-99.8" font-family="Times,serif" font-size="14.00">CoreModule</text>
</g>
<!-- CoreModule&#45;&gt;AppModule -->
<g id="edge11" class="edge">
<title>CoreModule&#45;&gt;AppModule</title>
<path fill="none" stroke="black" d="M1481,-122.12C1481,-136.78 1481,-155 1481,-155 1481,-155 1555.04,-155 1555.04,-155"/>
<polygon fill="black" stroke="black" points="1555.04,-158.5 1565.04,-155 1555.04,-151.5 1555.04,-158.5"/>
</g>
<!-- HttpClientModule -->
<g id="node13" class="node">
<title>HttpClientModule</title>
<polygon fill="#8dd3c7" stroke="black" points="1419.16,-122 1416.16,-126 1395.16,-126 1392.16,-122 1300.84,-122 1300.84,-86 1419.16,-86 1419.16,-122"/>
<text text-anchor="middle" x="1360" y="-99.8" font-family="Times,serif" font-size="14.00">HttpClientModule</text>
</g>
<!-- HttpClientModule&#45;&gt;AppModule -->
<g id="edge12" class="edge">
<title>HttpClientModule&#45;&gt;AppModule</title>
<path fill="none" stroke="black" d="M1360,-122.01C1360,-138.05 1360,-159 1360,-159 1360,-159 1555.1,-159 1555.1,-159"/>
<polygon fill="black" stroke="black" points="1555.1,-162.5 1565.1,-159 1555.1,-155.5 1555.1,-162.5"/>
</g>
<!-- AngularFireModule.initializeApp(args) -->
<g id="node14" class="node">
<title>AngularFireModule.initializeApp(args)</title>
<polygon fill="#8dd3c7" stroke="black" points="1282.71,-122 1279.71,-126 1258.71,-126 1255.71,-122 1045.29,-122 1045.29,-86 1282.71,-86 1282.71,-122"/>
<text text-anchor="middle" x="1164" y="-99.8" font-family="Times,serif" font-size="14.00">AngularFireModule.initializeApp(args)</text>
</g>
<!-- AngularFireModule.initializeApp(args)&#45;&gt;AppModule -->
<g id="edge13" class="edge">
<title>AngularFireModule.initializeApp(args)&#45;&gt;AppModule</title>
<path fill="none" stroke="black" d="M1164,-122.03C1164,-139.06 1164,-162 1164,-162 1164,-162 1555.32,-162 1555.32,-162"/>
<polygon fill="black" stroke="black" points="1555.32,-165.5 1565.32,-162 1555.32,-158.5 1555.32,-165.5"/>
</g>
<!-- AngularFireAuthModule -->
<g id="node15" class="node">
<title>AngularFireAuthModule</title>
<polygon fill="#8dd3c7" stroke="black" points="1026.97,-122 1023.97,-126 1002.97,-126 999.97,-122 871.03,-122 871.03,-86 1026.97,-86 1026.97,-122"/>
<text text-anchor="middle" x="949" y="-99.8" font-family="Times,serif" font-size="14.00">AngularFireAuthModule</text>
</g>
<!-- AngularFireAuthModule&#45;&gt;AppModule -->
<g id="edge14" class="edge">
<title>AngularFireAuthModule&#45;&gt;AppModule</title>
<path fill="none" stroke="black" d="M949,-122.27C949,-140.56 949,-166 949,-166 949,-166 1555.34,-166 1555.34,-166"/>
<polygon fill="black" stroke="black" points="1555.34,-169.5 1565.34,-166 1555.34,-162.5 1555.34,-169.5"/>
</g>
<!-- AngularFireStorageModule -->
<g id="node16" class="node">
<title>AngularFireStorageModule</title>
<polygon fill="#8dd3c7" stroke="black" points="853.23,-122 850.23,-126 829.23,-126 826.23,-122 682.77,-122 682.77,-86 853.23,-86 853.23,-122"/>
<text text-anchor="middle" x="768" y="-99.8" font-family="Times,serif" font-size="14.00">AngularFireStorageModule</text>
</g>
<!-- AngularFireStorageModule&#45;&gt;AppModule -->
<g id="edge15" class="edge">
<title>AngularFireStorageModule&#45;&gt;AppModule</title>
<path fill="none" stroke="black" d="M768,-122.11C768,-141.34 768,-169 768,-169 768,-169 1555.11,-169 1555.11,-169"/>
<polygon fill="black" stroke="black" points="1555.11,-172.5 1565.11,-169 1555.11,-165.5 1555.11,-172.5"/>
</g>
<!-- ServiceWorkerModule.register(args) -->
<g id="node17" class="node">
<title>ServiceWorkerModule.register(args)</title>
<polygon fill="#8dd3c7" stroke="black" points="664.4,-122 661.4,-126 640.4,-126 637.4,-122 441.6,-122 441.6,-86 664.4,-86 664.4,-122"/>
<text text-anchor="middle" x="553" y="-99.8" font-family="Times,serif" font-size="14.00">ServiceWorkerModule.register(args)</text>
</g>
<!-- ServiceWorkerModule.register(args)&#45;&gt;AppModule -->
<g id="edge16" class="edge">
<title>ServiceWorkerModule.register(args)&#45;&gt;AppModule</title>
<path fill="none" stroke="black" d="M553,-122.13C553,-142.57 553,-173 553,-173 553,-173 1555.03,-173 1555.03,-173"/>
<polygon fill="black" stroke="black" points="1555.03,-176.5 1565.03,-173 1555.03,-169.5 1555.03,-176.5"/>
</g>
<!-- FormsModule -->
<g id="node18" class="node">
<title>FormsModule</title>
<polygon fill="#8dd3c7" stroke="black" points="423.83,-122 420.83,-126 399.83,-126 396.83,-122 328.17,-122 328.17,-86 423.83,-86 423.83,-122"/>
<text text-anchor="middle" x="376" y="-99.8" font-family="Times,serif" font-size="14.00">FormsModule</text>
</g>
<!-- FormsModule&#45;&gt;AppModule -->
<g id="edge17" class="edge">
<title>FormsModule&#45;&gt;AppModule</title>
<path fill="none" stroke="black" d="M376,-122.04C376,-143.66 376,-177 376,-177 376,-177 1555.34,-177 1555.34,-177"/>
<polygon fill="black" stroke="black" points="1555.34,-180.5 1565.34,-177 1555.34,-173.5 1555.34,-180.5"/>
</g>
<!-- ReactiveFormsModule -->
<g id="node19" class="node">
<title>ReactiveFormsModule</title>
<polygon fill="#8dd3c7" stroke="black" points="310.3,-122 307.3,-126 286.3,-126 283.3,-122 165.7,-122 165.7,-86 310.3,-86 310.3,-122"/>
<text text-anchor="middle" x="238" y="-99.8" font-family="Times,serif" font-size="14.00">ReactiveFormsModule</text>
</g>
<!-- ReactiveFormsModule&#45;&gt;AppModule -->
<g id="edge18" class="edge">
<title>ReactiveFormsModule&#45;&gt;AppModule</title>
<path fill="none" stroke="black" d="M238,-122.01C238,-144.49 238,-180 238,-180 238,-180 1555.28,-180 1555.28,-180"/>
<polygon fill="black" stroke="black" points="1555.28,-183.5 1565.28,-180 1555.28,-176.5 1555.28,-183.5"/>
</g>
<!-- DataTablesModule -->
<g id="node20" class="node">
<title>DataTablesModule</title>
<polygon fill="#8dd3c7" stroke="black" points="147.79,-122 144.79,-126 123.79,-126 120.79,-122 24.21,-122 24.21,-86 147.79,-86 147.79,-122"/>
<text text-anchor="middle" x="86" y="-99.8" font-family="Times,serif" font-size="14.00">DataTablesModule</text>
</g>
<!-- DataTablesModule&#45;&gt;AppModule -->
<g id="edge19" class="edge">
<title>DataTablesModule&#45;&gt;AppModule</title>
<path fill="none" stroke="black" d="M86,-122.15C86,-145.76 86,-184 86,-184 86,-184 1555.13,-184 1555.13,-184"/>
<polygon fill="black" stroke="black" points="1555.13,-187.5 1565.13,-184 1555.13,-180.5 1555.13,-187.5"/>
</g>
</g>
</svg>
